<svg width="50" height="50" viewBox="0 0 50 50" fill="none" xmlns="http://www.w3.org/2000/svg">
<path d="M4.6875 40.625V29.6875C4.69239 28.0314 5.35245 26.4445 6.52349 25.2735C7.69453 24.1024 9.2814 23.4424 10.9375 23.4375H39.0625C40.7186 23.4424 42.3055 24.1024 43.4765 25.2735C44.6476 26.4445 45.3076 28.0314 45.3125 29.6875V40.625M37.5 23.4375H9.375V13.2812C9.37809 12.2462 9.79063 11.2544 10.5225 10.5225C11.2544 9.79063 12.2462 9.37809 13.2812 9.375H36.7188C37.7538 9.37809 38.7456 9.79063 39.4775 10.5225C40.2094 11.2544 40.6219 12.2462 40.625 13.2812V23.4375H37.5Z" stroke="#9D9D9D" stroke-width="3.125" stroke-linecap="round" stroke-linejoin="round"/>
<path d="M4.6875 40.625V39.8438C4.6893 39.2227 4.93681 38.6276 5.37596 38.1885C5.81511 37.7493 6.4102 37.5018 7.03125 37.5H42.9688C43.5898 37.5018 44.1849 37.7493 44.624 38.1885C45.0632 38.6276 45.3107 39.2227 45.3125 39.8438V40.625M10.9375 23.4375V21.875C10.9398 21.0469 11.2698 20.2534 11.8554 19.6679C12.4409 19.0823 13.2344 18.7523 14.0625 18.75H21.875C22.7031 18.7523 23.4966 19.0823 24.0821 19.6679C24.6677 20.2534 24.9977 21.0469 25 21.875M25 21.875V23.4375M25 21.875C25.0023 21.0469 25.3323 20.2534 25.9179 19.6679C26.5034 19.0823 27.2969 18.7523 28.125 18.75H35.9375C36.7656 18.7523 37.5591 19.0823 38.1446 19.6679C38.7302 20.2534 39.0602 21.0469 39.0625 21.875V23.4375" stroke="#9D9D9D" stroke-width="3.125" stroke-linecap="round" stroke-linejoin="round"/>
</svg>
