<svg width="50" height="50" viewBox="0 0 50 50" fill="none" xmlns="http://www.w3.org/2000/svg">
<path d="M7.8125 21.875L11.502 13.2666C12.1025 11.8652 13.6328 10.9375 15.3428 10.9375H34.6572C36.3672 10.9375 37.8975 11.8652 38.498 13.2666L42.1875 21.875M7.8125 21.875H42.1875M7.8125 21.875V35.9375M42.1875 21.875V35.9375M42.1875 35.9375H7.8125M42.1875 35.9375V39.0625H39.0625V35.9375M7.8125 35.9375V39.0625H10.9375V35.9375" stroke="#9D9D9D" stroke-width="3.125" stroke-linecap="round" stroke-linejoin="round"/>
<path d="M14.0625 29.6875C14.9254 29.6875 15.625 28.9879 15.625 28.125C15.625 27.2621 14.9254 26.5625 14.0625 26.5625C13.1996 26.5625 12.5 27.2621 12.5 28.125C12.5 28.9879 13.1996 29.6875 14.0625 29.6875Z" stroke="#9D9D9D" stroke-width="3.125" stroke-linecap="round" stroke-linejoin="round"/>
<path d="M35.9375 29.6875C36.8004 29.6875 37.5 28.9879 37.5 28.125C37.5 27.2621 36.8004 26.5625 35.9375 26.5625C35.0746 26.5625 34.375 27.2621 34.375 28.125C34.375 28.9879 35.0746 29.6875 35.9375 29.6875Z" stroke="#9D9D9D" stroke-width="3.125" stroke-linecap="round" stroke-linejoin="round"/>
</svg>
