<svg width="41" height="41" viewBox="0 0 41 41" fill="none" xmlns="http://www.w3.org/2000/svg">
<g id="&#240;&#159;&#166;&#134; icon &#34;email outline&#34;">
<path id="Vector" d="M32.1417 6.76668H8.45833C7.11236 6.76668 5.82151 7.30136 4.86976 8.25311C3.91802 9.20486 3.38333 10.4957 3.38333 11.8417V28.7583C3.38333 30.1043 3.91802 31.3952 4.86976 32.3469C5.82151 33.2987 7.11236 33.8333 8.45833 33.8333H32.1417C33.4876 33.8333 34.7785 33.2987 35.7302 32.3469C36.682 31.3952 37.2167 30.1043 37.2167 28.7583V11.8417C37.2167 10.4957 36.682 9.20486 35.7302 8.25311C34.7785 7.30136 33.4876 6.76668 32.1417 6.76668ZM31.0082 10.15L20.3 18.1854L9.59175 10.15H31.0082ZM32.1417 30.45H8.45833C8.00967 30.45 7.57939 30.2718 7.26214 29.9545C6.94489 29.6373 6.76666 29.207 6.76666 28.7583V12.2646L19.285 21.6533C19.5778 21.873 19.934 21.9917 20.3 21.9917C20.666 21.9917 21.0222 21.873 21.315 21.6533L33.8333 12.2646V28.7583C33.8333 29.207 33.6551 29.6373 33.3379 29.9545C33.0206 30.2718 32.5903 30.45 32.1417 30.45Z" fill="#231F20"/>
</g>
</svg>
