<svg width="68" height="78" viewBox="0 0 68 78" fill="none" xmlns="http://www.w3.org/2000/svg">
<path d="M47.9487 9.10132C53.9503 13.2954 59.9263 17.527 65.9745 21.6529C67.224 22.5052 67.7566 23.4067 67.694 24.9145C67.6034 27.096 67.6418 29.2829 67.6578 31.7254C67.6623 32.4172 66.9109 32.8468 66.3153 32.4946C65.8206 32.202 65.3598 31.9295 64.8503 31.6279C64.7614 31.5753 64.5995 31.53 64.4963 31.534V31.534C64.2262 31.5445 64.1493 31.8144 64.1471 32.0846C64.1156 35.8214 64.0841 39.5723 64.0497 43.7023C64.0812 47.2542 64.1159 50.3971 64.1506 53.5401C64.1506 57.797 64.1506 62.0539 64.1506 66.6676C64.1506 67.161 63.7505 67.561 63.2571 67.5657C61.6007 67.5814 60.1185 67.6271 58.6446 67.5371C57.0324 67.4387 56.3381 67.9532 56.4329 69.6649C56.5521 71.8169 56.5473 73.9872 56.3911 76.1347C56.3537 76.6497 55.5085 77.5259 55.0319 77.5278C40.6666 77.5857 26.3009 77.5551 11.9352 77.5307C11.8783 77.5306 11.8213 77.5126 11.7405 77.4781C11.4056 77.335 11.1888 76.9976 11.1875 76.6334C11.1795 74.3732 11.1341 71.9999 11.2121 69.6306C11.2618 68.1206 10.788 67.4409 9.18829 67.539C7.74233 67.6276 6.28816 67.5821 4.60614 67.5667C4.11274 67.5622 3.71256 67.1622 3.71256 66.6688C3.71256 55.4061 3.71256 44.2883 3.71256 32.7692C3.71256 32.0732 2.95175 31.6442 2.35634 32.0047C2.02793 32.2035 1.71197 32.3948 1.38827 32.5908C0.79286 32.9513 0.0307389 32.5225 0.0257881 31.8265C0.00447805 28.8306 -0.0536953 26.0381 0.130098 23.2616C0.174005 22.5983 1.38281 21.827 2.21044 21.4319C6.43863 19.4135 8.45448 16.3313 7.49839 11.5312C7.3071 10.5709 7.39631 9.5547 7.44156 8.44331C7.46163 7.95031 7.86227 7.55011 8.35568 7.55011C11.1327 7.55011 13.8342 7.55011 16.6266 7.55011C17.0745 7.55011 17.4532 7.88171 17.5123 8.32569C17.5441 8.56464 17.5772 8.81367 17.6125 9.0794C17.6971 9.7156 18.4096 10.0655 18.9639 9.74213C19.3075 9.54173 19.6284 9.34753 19.9369 9.13533C23.9204 6.39525 27.953 3.72027 31.8382 0.846521C33.3903 -0.301467 34.5616 -0.279507 35.9648 0.898146C36.9255 1.70444 38.0071 2.36657 39.2742 3.24282C42.3254 5.29543 45.137 7.19838 47.9487 9.10132ZM64.1259 27.9771C64.3913 28.1639 64.7581 28.2008 64.9389 27.9313C64.9647 27.8927 64.9918 27.8494 65.0205 27.8005C65.0638 27.7269 65.0934 27.6451 65.1097 27.5612C65.5909 25.0968 64.585 23.4416 62.354 22.2863C60.7163 21.4382 59.1539 20.4223 57.6372 19.3673C51.6273 15.187 45.6486 10.9619 39.4883 6.52283C38.2037 5.63578 36.8063 4.87232 35.6639 3.82953C34.3225 2.60509 33.3021 2.89646 31.9646 3.8332C22.8263 10.2332 13.6436 16.57 4.47077 22.9207C2.53127 24.2635 2.049 25.1777 2.6127 27.2724C2.76169 27.826 3.41788 28.0595 3.90108 27.7509C4.0238 27.6725 4.14506 27.5928 4.26443 27.5103C12.5856 21.7616 21.0555 16.2118 29.1514 10.1615C32.5889 7.59259 35.2764 6.84588 38.3793 10.1303C38.5233 10.2827 38.7706 10.3374 39.1567 10.6503C47.4514 16.3648 55.746 22.0793 64.1259 27.9771ZM47.5603 40.0512C45.7877 40.0456 44.0102 39.9562 42.2442 40.0616C41.1995 40.1239 40.1625 40.3285 39.4875 41.2624C39.1382 41.7457 39.5782 42.3373 40.1746 42.3376C42.72 42.3387 45.1721 42.3468 47.9201 42.4075C48.7462 42.4075 49.5723 42.4075 50.4422 42.4075C50.9141 42.4075 51.3051 42.7745 51.3408 43.2451C51.3825 43.7971 51.418 44.2457 51.4186 44.6944C51.4271 51.5432 51.355 58.393 51.4675 65.2399C51.4995 67.1899 50.7803 67.5618 49.0143 67.5492C38.8906 67.4768 28.766 67.5169 18.6418 67.5075C18.1569 67.507 17.6721 67.4645 17.1225 67.4172C16.6548 67.377 16.2915 66.9866 16.2914 66.5172C16.2899 58.738 16.2707 51.1355 16.3668 43.5345C16.3715 43.1611 17.4628 42.5077 18.0666 42.4853C21.0403 42.3754 24.0204 42.4476 26.9979 42.4229C27.4286 42.4194 27.8588 42.3406 28.2889 42.2665C28.5665 42.2187 28.774 41.979 28.7733 41.6973V41.6973C28.7727 41.4972 28.6654 41.3107 28.4891 41.2158C24.1862 38.9015 19.5034 40.3893 14.942 40.0433C14.3996 40.0021 13.9171 40.4192 13.9171 40.9632C13.9171 52.2338 13.9171 63.1092 13.9171 73.9651C13.9171 74.4585 14.3172 74.8585 14.8106 74.8585C27.5841 74.8585 40.2024 74.8585 52.8082 74.8585C53.3016 74.8585 53.7016 74.4584 53.7016 73.965C53.7016 62.8692 53.7016 51.9364 53.7016 40.9638C53.7016 40.502 53.3501 40.1104 52.8909 40.0608C52.6475 40.0345 52.4274 40.016 52.2076 40.0189C50.7956 40.0373 49.384 40.0868 47.5603 40.0512ZM19.6766 45.1106C19.3471 45.1122 19.0431 45.2974 18.9464 45.6124C18.9304 45.6646 18.9132 45.7229 18.8945 45.7884C18.8725 45.8656 18.8618 45.9459 18.8618 46.0262C18.8618 51.9869 18.8618 57.9483 18.8618 64.0059C18.8618 64.4993 19.2618 64.8994 19.7552 64.8994C29.2347 64.8994 38.4917 64.8994 47.8185 64.8994C48.3119 64.8994 48.7119 64.4993 48.7119 64.0059C48.7119 57.9642 48.7119 52.0428 48.7119 46.0228C48.7119 45.5294 48.3119 45.1293 47.8185 45.1293C45.1409 45.1293 42.547 45.1289 39.8039 45.1254C39.4645 45.125 39.1526 45.3175 39.056 45.6429C39.0428 45.6873 39.0287 45.736 39.0136 45.7896C38.9926 45.8644 38.9821 45.942 38.9813 46.0196C38.9556 48.6591 38.6222 51.3443 39.0058 53.9229C39.6363 58.1612 36.9608 60.1435 34.4415 62.343C34.1005 62.6408 33.5886 62.6454 33.247 62.3483C28.8729 58.544 27.2463 56.8935 30.0768 52.9525C30.3273 52.6038 30.3191 52.124 30.0362 51.801C29.6705 51.3836 29.3047 50.9659 28.9431 50.5531C28.6503 50.2188 28.6477 49.7202 28.9369 49.3829C29.36 48.8893 29.7347 48.4523 30.0696 48.0617C30.2964 47.797 30.3536 47.4207 30.1822 47.1172C29.1295 45.2531 27.5915 44.8133 25.6158 44.9944C23.7104 45.169 21.7827 45.1006 19.6766 45.1106ZM56.5068 60.6295C56.4972 61.5219 56.5057 62.4149 56.4736 63.3065C56.4309 64.492 56.8918 65.0092 58.1646 65.0619C61.3435 65.1936 61.4252 65.1837 61.4135 62.0124C61.4102 61.1228 61.338 60.2335 61.3892 58.9338C61.4018 49.5598 61.4492 40.1854 61.3677 30.8122C61.3604 29.9683 60.7337 28.8312 60.0357 28.3375C51.9047 22.5866 43.6903 16.9536 35.5386 11.2314C34.3273 10.3811 33.4723 10.3481 32.2147 11.2319C24.0641 16.9605 15.8243 22.5623 7.6868 28.3091C6.94785 28.831 6.32971 30.0791 6.32159 30.9959C6.22736 41.6342 6.31819 52.2743 6.21361 62.9124C6.19264 65.0456 7.20527 65.0653 8.79646 65.1055C10.5155 65.1489 11.3229 64.8356 11.2933 62.8296C11.1814 55.2425 11.2453 47.6527 11.2533 40.0639C11.2539 39.4902 11.2883 38.9165 11.326 38.2278C11.3521 37.7506 11.7456 37.3745 12.2235 37.3745C15.5689 37.3745 18.817 37.3745 22.1232 37.3745C22.7636 37.3745 23.1958 36.7183 22.9687 36.1197C20.2702 29.0084 21.2926 23.9842 26.0207 20.1592C30.263 16.727 36.4849 16.438 40.8007 19.4616C43.2602 21.1847 44.9806 23.4403 45.8611 26.328C46.8928 29.7115 46.3952 32.8795 44.7427 36.1058C44.425 36.7259 44.8577 37.491 45.5545 37.491C48.9945 37.491 52.2266 37.491 55.5634 37.491C56.0568 37.491 56.4568 37.8912 56.456 38.3846C56.4549 39.0377 56.4537 39.5999 56.4577 40.1621C56.5053 46.8538 56.555 53.5456 56.5068 60.6295ZM26.486 36.6464C26.5342 36.7101 26.592 36.7671 26.655 36.8164C27.5018 37.4792 28.273 38.3576 29.2341 38.6947C31.0355 39.3267 31.6756 40.4129 31.3856 42.2062C31.1243 43.8209 31.6756 45.0857 32.9701 46.0955C33.2671 46.3271 33.5103 46.6277 33.7482 46.9375C34.0155 47.2855 34.0082 47.7816 33.7225 48.1147C33.3289 48.5738 32.9615 49.0022 32.5988 49.4252C32.311 49.7608 32.312 50.2563 32.601 50.5908C32.9892 51.0402 33.3499 51.4577 33.6983 51.861C33.9795 52.1865 33.9861 52.6691 33.7183 53.0058C30.823 56.645 30.7724 56.9551 33.3038 58.7765C33.6109 58.9975 34.0276 58.9986 34.3363 58.7799C36.3654 57.3426 36.367 57.149 36.368 54.4942C36.3696 50.3341 36.4124 46.1732 36.3455 42.0141C36.3209 40.4827 36.5493 39.5546 38.2317 38.8012C41.8516 37.1801 43.732 34.0399 43.8058 30.0971C43.8813 26.0713 41.9344 23.0151 38.4036 21.0903C34.3898 18.9021 29.2222 19.9441 26.2717 23.4213C23.074 27.1898 23.0823 32.1433 26.486 36.6464ZM12.4757 9.78946C12.0091 9.81261 11.5425 9.83576 11.0417 9.86061C10.5661 9.88421 10.1926 10.2768 10.1926 10.753C10.1926 11.9078 10.1926 13.0173 10.1926 14.1322C10.1926 14.7709 10.8462 15.2039 11.4262 14.9365C14.289 13.6163 15.0356 12.6746 14.8855 10.6235C14.8544 10.1993 14.4985 9.87857 14.0737 9.85689C13.6391 9.8347 13.1372 9.81209 12.4757 9.78946Z" fill="white"/>
<path d="M64.2681 31.6413C64.2703 31.576 64.39 31.5009 64.5641 31.5112C64.5409 31.6083 64.4632 31.62 64.2681 31.6413Z" fill="white"/>
<path d="M39.3641 45.127C39.4112 45.2343 39.3276 45.3241 39.1475 45.4447C39.1282 45.3687 39.1889 45.2467 39.3641 45.127Z" fill="white"/>
<path d="M19.2597 45.1157C19.3064 45.2258 19.2181 45.3194 19.0289 45.4451C19.0103 45.367 19.0758 45.241 19.2597 45.1157Z" fill="white"/>
<path d="M64.5112 28.1835C64.5514 28.0836 64.6364 28.08 64.8493 28.0764C64.8367 28.1442 64.6964 28.2121 64.5112 28.1835Z" fill="white"/>
<path d="M34.1243 72.6069C28.1189 72.6068 22.3368 72.6068 16.4242 72.6068C16.3734 71.7113 16.3371 71.0699 16.2898 70.2354C26.3319 70.2354 36.2405 70.2354 46.2535 70.2354C46.2535 70.9668 46.2535 71.662 46.2535 72.6069C42.1906 72.6069 38.2691 72.6069 34.1243 72.6069Z" fill="white"/>
<path d="M49.1529 72.3764C48.98 71.6126 48.9385 70.9731 48.8872 70.1836C49.7906 70.1836 50.4876 70.1836 51.2556 70.1836C51.7602 72.0415 51.418 73.0346 49.1529 72.3764Z" fill="white"/>
<path d="M38.5281 25.7377C39.0671 29.2539 37.8495 31.4127 35.0704 32.1345C32.5351 32.793 30.0536 31.4888 29.2034 29.051C28.3872 26.7107 29.2725 24.3139 31.3985 23.1083C33.4688 21.9342 35.8595 22.3209 37.4452 24.1196C37.8339 24.5605 38.1361 25.0778 38.5281 25.7377ZM32.0103 29.0301C33.0785 29.1555 34.2206 29.5558 35.1853 29.2965C35.7077 29.156 36.3138 27.8148 36.1837 27.1525C36.0308 26.3744 35.2414 25.4345 34.5014 25.146C33.8698 24.8997 32.4939 25.2347 32.204 25.7436C31.743 26.553 31.9116 27.721 32.0103 29.0301Z" fill="white"/>
</svg>
