<svg width="40" height="40" viewBox="0 0 40 40" fill="none" xmlns="http://www.w3.org/2000/svg">
<path d="M25 5H35M35 5V15M35 5L15.8333 24.1667M25.8333 24.1667H15.8333M15.8333 24.1667V14.1667" stroke="#9D9D9D" stroke-width="3.13" stroke-linecap="round" stroke-linejoin="round"/>
<path d="M18.3333 5H6.66667C6.22464 5 5.80072 5.17559 5.48816 5.48816C5.17559 5.80072 5 6.22464 5 6.66667V33.3333C5 33.7754 5.17559 34.1993 5.48816 34.5118C5.80072 34.8244 6.22464 35 6.66667 35H33.3333C33.7754 35 34.1993 34.8244 34.5118 34.5118C34.8244 34.1993 35 33.7754 35 33.3333V21.6667" stroke="#9D9D9D" stroke-width="3.13" stroke-linecap="round" stroke-linejoin="round"/>
</svg>
