<svg width="41" height="41" viewBox="0 0 41 41" fill="none" xmlns="http://www.w3.org/2000/svg">
<g id="&#240;&#159;&#166;&#134; icon &#34;vpn key&#34;">
<path id="Vector" d="M37.2167 32.1417H27.0667V25.375H22.533C20.6045 29.4688 16.443 32.1417 11.8417 32.1417C5.31183 32.1417 0 26.8298 0 20.3C0 13.7702 5.31183 8.45833 11.8417 8.45833C16.443 8.45833 20.5876 11.1312 22.533 15.225H40.6V25.375H37.2167V32.1417ZM30.45 28.7583H33.8333V21.9917H37.2167V18.6083H20.1985L19.8094 17.4749C18.6252 14.1085 15.4111 11.8417 11.8417 11.8417C7.17267 11.8417 3.38333 15.631 3.38333 20.3C3.38333 24.969 7.17267 28.7583 11.8417 28.7583C15.4111 28.7583 18.6252 26.4915 19.8094 23.1251L20.1985 21.9917H30.45V28.7583ZM11.8417 25.375C9.05042 25.375 6.76667 23.0912 6.76667 20.3C6.76667 17.5087 9.05042 15.225 11.8417 15.225C14.6329 15.225 16.9167 17.5087 16.9167 20.3C16.9167 23.0912 14.6329 25.375 11.8417 25.375ZM11.8417 18.6083C10.9112 18.6083 10.15 19.3696 10.15 20.3C10.15 21.2304 10.9112 21.9917 11.8417 21.9917C12.7721 21.9917 13.5333 21.2304 13.5333 20.3C13.5333 19.3696 12.7721 18.6083 11.8417 18.6083Z" fill="black"/>
</g>
</svg>
